<svg width="44" height="44" viewBox="0 0 44 44" fill="none" xmlns="http://www.w3.org/2000/svg">
<path d="M11.9304 37.1998C13.7674 37.1998 15.2611 38.7265 15.2611 40.601C15.2611 42.4756 13.7674 44 11.9304 44C10.0934 44 8.59749 42.4756 8.59749 40.601C8.59749 38.7265 10.0934 37.1998 11.9304 37.1998ZM36.6842 37.1998C38.5211 37.1998 40.0171 38.7265 40.0171 40.601C40.0171 42.4756 38.5211 44 36.6842 44C34.8472 44 33.3535 42.4756 33.3535 40.601C33.3535 38.7265 34.8472 37.1998 36.6842 37.1998ZM1.70598 0.000703739L1.93143 0.0223315L6.50952 0.832783C7.2487 0.962994 7.80969 1.58935 7.87128 2.35266L9.98983 28.1075C10.091 29.3423 11.0832 30.274 12.2998 30.274H36.3034C37.4473 30.274 38.4329 29.4029 38.5979 28.249L40.6857 13.5239C40.7605 13.003 40.5273 12.6371 40.3821 12.4642C40.2369 12.2936 39.9157 12.0062 39.3987 12.0062H15.7603C14.8495 12.0062 14.1103 11.2519 14.1103 10.3225C14.1103 9.39304 14.8495 8.63871 15.7603 8.63871H39.3987C40.7341 8.63871 42.0034 9.2314 42.8768 10.2619C43.7502 11.2923 44.144 12.6551 43.9526 14.0066L41.8626 28.7316C41.4666 31.5312 39.0775 33.6415 36.3034 33.6415H12.2998C9.35405 33.6415 6.94731 31.383 6.70091 28.3881L4.69016 3.92866L1.36825 3.34271C0.47067 3.18332 -0.129915 2.31225 0.0240811 1.39628C0.178077 0.47807 1.02286 -0.12584 1.93143 0.0223315L1.70598 0.000703739ZM32.7773 16.9376C33.6881 16.9376 34.4273 17.692 34.4273 18.6214C34.4273 19.5508 33.6881 20.3052 32.7773 20.3052H26.6769C25.7639 20.3052 25.0269 19.5508 25.0269 18.6214C25.0269 17.692 25.7639 16.9376 26.6769 16.9376H32.7773Z" fill="myDark"/>
</svg>
