<svg width="137" height="104" viewBox="0 0 137 104" fill="none" xmlns="http://www.w3.org/2000/svg">
<path d="M65.426 10.9914C64.5763 11.6839 63.6866 12.3253 62.7618 12.9125C58.7522 15.4057 57.6686 22.9858 49.0261 19.269C35.8717 13.6188 29.6369 16.5392 26.848 20.2048C24.059 23.8704 18.3406 33.5641 22.3783 39.804C25.1567 44.0964 26.0963 46.1905 24.5842 51.4329C21.5564 61.937 19.1152 54.3216 13.3125 67.1705C8.58461 77.6428 7.69243 97.5404 37.9862 102.804C47.8915 104.527 51.6569 94.8831 47.6456 85.8939C44.1612 78.0948 60.6947 86.8227 62.7495 77.1114C64.9413 66.7679 49.4282 67.0734 52.4982 59.5886C52.9601 58.4621 54.7901 53.2321 53.0374 50.6401C41.8482 34.0655 59.9202 30.7231 70.5157 38.0242C72.1209 39.1313 87.3758 47.4707 88.0502 26.2488C88.1099 24.3736 88.1661 15.0243 82.799 12.0791C72.7848 6.57898 67.3333 9.46588 65.426 10.9914Z" fill="url(#paint0_linear_75_231)"/>
<path d="M54.5946 2.13173C53.7449 2.82416 52.8552 3.46563 51.9304 4.05281C47.9208 6.54597 46.8372 14.1261 38.1947 10.4093C25.0402 4.75908 18.8055 7.67954 16.0166 11.3451C13.2276 15.0107 7.50924 24.7044 11.5469 30.9443C14.3253 35.2367 15.2649 37.3308 13.7528 42.5732C10.725 53.0773 8.28375 45.4619 2.48106 58.3108C-2.2468 68.7832 -3.13898 88.6808 27.1548 93.9443C37.0601 95.6676 40.8255 86.0234 36.8142 77.0342C33.3298 69.2352 49.8633 77.963 51.9181 68.2517C54.1099 57.9082 38.5968 58.2137 41.6668 50.7289C42.1287 49.6024 43.9587 44.3724 42.206 41.7804C31.0168 25.2058 49.0888 21.8634 59.6843 29.1645C61.2895 30.2716 76.5444 38.611 77.2188 17.3891C77.2785 15.5139 77.3347 6.16458 71.9676 3.2194C61.9534 -2.28074 56.5019 0.606172 54.5946 2.13173Z" fill="url(#paint1_linear_75_231)"/>
<path d="M23.9894 77.4737L26.6703 70.3986H28.9602L25.0134 80.1128H22.9282L19 70.3986H21.3458L23.9894 77.4737Z" fill="#F5F5F5"/>
<path d="M35.9499 75.5458L33.3807 75.9389C32.1768 76.1261 31.5748 76.5877 31.5748 77.324C31.5748 78.1725 32.1457 78.5967 33.2876 78.5967C34.144 78.5967 34.8018 78.3659 35.261 77.9042C35.7203 77.4425 35.9499 76.8623 35.9499 76.1635V75.5458ZM32.8408 80.3374C31.6989 80.3374 30.8487 80.0692 30.2902 79.5326C29.7317 78.996 29.4524 78.2848 29.4524 77.3988C29.4524 75.7018 30.6874 74.6786 33.1573 74.3292L35.9499 73.9361V73.7864C35.9499 72.601 35.261 72.0082 33.8834 72.0082C32.6794 72.0082 31.9968 72.4887 31.8355 73.4495H29.6758C29.7751 72.5011 30.1661 71.7212 30.8487 71.1098C31.5438 70.4859 32.5739 70.174 33.9392 70.174C35.3169 70.174 36.3532 70.4921 37.0483 71.1285C37.7558 71.7649 38.1095 72.6571 38.1095 73.8051V78.2785C38.1095 79.0647 38.2026 79.6761 38.3887 80.1128H36.285C36.2726 80.1128 36.254 80.0692 36.2291 79.9818C36.2167 79.882 36.1981 79.726 36.1733 79.5139C36.1609 79.3017 36.1547 79.0771 36.1547 78.8401C35.4969 79.8383 34.3922 80.3374 32.8408 80.3374Z" fill="#F5F5F5"/>
<path d="M42.9527 78.8401V84.006H40.7373V70.3986H42.7852V71.7836C43.4678 70.7105 44.5538 70.174 46.0432 70.174C47.4333 70.174 48.5255 70.6606 49.3199 71.6339C50.1266 72.6072 50.53 73.8176 50.53 75.2651C50.53 76.7125 50.1266 77.9229 49.3199 78.8962C48.5255 79.857 47.4333 80.3374 46.0432 80.3374C44.6283 80.3374 43.5981 79.8383 42.9527 78.8401ZM42.8783 75.2651C42.8783 76.1635 43.1203 76.9059 43.6043 77.4924C44.1008 78.0789 44.7648 78.3721 45.5964 78.3721C46.4156 78.3721 47.0734 78.0789 47.5698 77.4924C48.0663 76.8935 48.3145 76.151 48.3145 75.2651C48.3145 74.3541 48.0663 73.5992 47.5698 73.0003C47.0734 72.4013 46.4156 72.1018 45.5964 72.1018C44.7648 72.1018 44.1008 72.4013 43.6043 73.0003C43.1203 73.5867 42.8783 74.3417 42.8783 75.2651Z" fill="#F5F5F5"/>
<path d="M61.4721 75.9014H54.1183C54.2052 76.6751 54.4845 77.2928 54.9561 77.7545C55.4277 78.2037 56.0483 78.4283 56.8178 78.4283C57.3267 78.4283 57.7859 78.3035 58.1955 78.0539C58.6051 77.8044 58.8968 77.4675 59.0705 77.0432H61.3046C61.0067 78.029 60.4482 78.8276 59.629 79.439C58.8223 80.038 57.8666 80.3374 56.762 80.3374C55.3222 80.3374 54.1556 79.857 53.2619 78.8962C52.3807 77.9354 51.9401 76.7188 51.9401 75.2463C51.9401 73.8113 52.3869 72.6072 53.2805 71.6339C54.1742 70.6606 55.3284 70.174 56.7434 70.174C58.1583 70.174 59.3001 70.6544 60.1689 71.6152C61.0502 72.5635 61.4908 73.7614 61.4908 75.2089L61.4721 75.9014ZM56.7434 71.9895C56.0483 71.9895 55.4712 72.1954 55.0119 72.6072C54.5527 73.019 54.2673 73.568 54.1556 74.2543H59.2939C59.1946 73.568 58.9216 73.019 58.4748 72.6072C58.0279 72.1954 57.4508 71.9895 56.7434 71.9895Z" fill="#F5F5F5"/>
<path d="M69.043 69.9493C69.043 69.001 69.3781 68.1962 70.0483 67.5348C70.7185 66.8735 71.637 66.5428 72.8037 66.5428C73.958 66.5428 74.8702 66.8735 75.5404 67.5348C76.2106 68.1837 76.5458 68.9698 76.5458 69.8932C76.5458 71.4405 75.5652 72.6259 73.6042 73.4495L76.1734 76.1822C76.5209 75.5209 76.6947 74.7534 76.6947 73.88L76.6202 72.7569H78.6495C78.6992 73.1188 78.724 73.4807 78.724 73.8425C78.724 75.3274 78.3392 76.6189 77.5697 77.717L79.8038 80.1128H77.0857L76.192 79.1583C75.1246 79.9818 73.8462 80.3936 72.3569 80.3936C70.9668 80.3936 69.8435 80.0442 68.9871 79.3454C68.1307 78.6342 67.7025 77.7108 67.7025 76.5753C67.7025 74.8533 68.59 73.5992 70.3648 72.8131C69.4836 71.8897 69.043 70.9351 69.043 69.9493ZM72.4127 78.447C73.3312 78.447 74.1441 78.1974 74.8516 77.6983L71.6866 74.273C71.0537 74.5476 70.5882 74.8533 70.2903 75.1902C70.0049 75.5271 69.8621 75.9451 69.8621 76.4442C69.8621 77.0432 70.0856 77.5298 70.5324 77.9042C70.9916 78.2661 71.6184 78.447 72.4127 78.447ZM71.1095 69.9493C71.1095 70.4984 71.4508 71.1285 72.1335 71.8398L72.2638 72.0082L72.8223 71.7649C73.9269 71.3157 74.4792 70.6918 74.4792 69.8932C74.4792 69.444 74.3241 69.0759 74.0138 68.7889C73.7035 68.4894 73.3001 68.3397 72.8037 68.3397C72.2948 68.3397 71.8852 68.4894 71.5749 68.7889C71.2646 69.0884 71.1095 69.4752 71.1095 69.9493Z" fill="#F5F5F5"/>
<path d="M92.6608 71.6713V66.0749H94.8762V80.1128H92.8283V78.7278C92.1705 79.8009 91.0845 80.3374 89.5703 80.3374C88.1926 80.3374 87.1004 79.857 86.2937 78.8962C85.4993 77.9229 85.1021 76.7125 85.1021 75.2651C85.1021 73.8176 85.4993 72.6072 86.2937 71.6339C87.1004 70.6606 88.1926 70.174 89.5703 70.174C90.9728 70.174 92.003 70.6731 92.6608 71.6713ZM92.7539 75.2651C92.7539 74.3541 92.5056 73.6055 92.0092 73.019C91.5251 72.4325 90.8673 72.1393 90.0357 72.1393C89.2166 72.1393 88.5588 72.4325 88.0623 73.019C87.5658 73.6055 87.3176 74.3541 87.3176 75.2651C87.3176 76.151 87.5658 76.8935 88.0623 77.4924C88.5588 78.0789 89.2166 78.3721 90.0357 78.3721C90.8673 78.3721 91.5251 78.0789 92.0092 77.4924C92.5056 76.9059 92.7539 76.1635 92.7539 75.2651Z" fill="#F5F5F5"/>
<path d="M98.688 68.7702C98.2784 68.7702 97.9433 68.6454 97.6826 68.3958C97.422 68.1338 97.2917 67.8031 97.2917 67.4038C97.2917 66.992 97.422 66.6551 97.6826 66.3931C97.9433 66.131 98.2784 66 98.688 66C99.0851 66 99.4141 66.131 99.6747 66.3931C99.9353 66.6551 100.066 66.992 100.066 67.4038C100.066 67.8031 99.9353 68.1338 99.6747 68.3958C99.4141 68.6454 99.0851 68.7702 98.688 68.7702ZM97.5709 80.1128V70.3986H99.7864V80.1128H97.5709Z" fill="#F5F5F5"/>
<path d="M105.775 80.3374C104.447 80.3374 103.448 80.0255 102.778 79.4016C102.108 78.7777 101.742 77.9791 101.68 77.0058H103.821C103.845 77.455 104.038 77.8168 104.398 78.0914C104.758 78.3659 105.26 78.5031 105.906 78.5031C106.477 78.5031 106.917 78.4033 107.228 78.2037C107.538 78.004 107.693 77.7357 107.693 77.3988C107.693 77.0245 107.501 76.75 107.116 76.5753C106.744 76.3881 106.284 76.2508 105.738 76.1635C105.192 76.0761 104.646 75.9638 104.1 75.8266C103.554 75.6768 103.088 75.3898 102.704 74.9656C102.331 74.5413 102.145 73.9611 102.145 73.2249C102.145 72.3764 102.493 71.6589 103.188 71.0724C103.895 70.4734 104.826 70.174 105.98 70.174C106.638 70.174 107.215 70.28 107.712 70.4921C108.221 70.6918 108.612 70.9601 108.885 71.297C109.17 71.6339 109.381 71.9771 109.518 72.3264C109.667 72.6758 109.753 73.0315 109.778 73.3933H107.656C107.619 73.0065 107.451 72.6758 107.153 72.4013C106.868 72.1268 106.458 71.9895 105.924 71.9895C105.391 71.9895 104.981 72.0956 104.696 72.3077C104.41 72.5074 104.267 72.7881 104.267 73.15C104.267 73.4869 104.454 73.7427 104.826 73.9174C105.211 74.0921 105.676 74.2231 106.222 74.3105C106.768 74.3978 107.315 74.5226 107.861 74.6848C108.407 74.8346 108.866 75.1278 109.238 75.5645C109.623 76.0013 109.815 76.5815 109.815 77.3052C109.815 78.1787 109.462 78.9024 108.754 79.4764C108.059 80.0504 107.066 80.3374 105.775 80.3374Z" fill="#F5F5F5"/>
<path d="M116.144 78.1288V80.0567C115.871 80.1315 115.487 80.169 114.99 80.169C113.104 80.169 112.16 79.2144 112.16 77.3052V72.1767H110.69V70.3986H112.16V67.8717H114.376V70.3986H116.182V72.1767H114.376V77.0806C114.376 77.8418 114.736 78.2224 115.456 78.2224L116.144 78.1288Z" fill="#F5F5F5"/>
<path d="M123.165 70.3237V72.4013C122.991 72.3764 122.823 72.3639 122.662 72.3639C120.999 72.3639 120.167 73.2623 120.167 75.0592V80.1128H117.952V70.3986H120V71.7462C120.546 70.7854 121.495 70.305 122.848 70.305L123.165 70.3237Z" fill="#F5F5F5"/>
<path d="M128.727 80.3374C127.237 80.3374 126.027 79.8446 125.096 78.8588C124.178 77.873 123.718 76.6751 123.718 75.2651C123.718 73.855 124.178 72.6571 125.096 71.6713C126.027 70.6731 127.237 70.174 128.727 70.174C130.228 70.174 131.438 70.6731 132.357 71.6713C133.288 72.6571 133.753 73.855 133.753 75.2651C133.753 76.6751 133.288 77.873 132.357 78.8588C131.438 79.8446 130.228 80.3374 128.727 80.3374ZM125.934 75.2651C125.934 76.1884 126.195 76.9371 126.716 77.5111C127.25 78.0851 127.92 78.3721 128.727 78.3721C129.546 78.3721 130.216 78.0851 130.737 77.5111C131.271 76.9371 131.538 76.1884 131.538 75.2651C131.538 74.3292 131.271 73.5743 130.737 73.0003C130.216 72.4263 129.546 72.1393 128.727 72.1393C127.92 72.1393 127.25 72.4263 126.716 73.0003C126.195 73.5743 125.934 74.3292 125.934 75.2651Z" fill="#F5F5F5"/>
<path d="M71.52 32.6149C71.4751 32.5964 71.4374 32.5636 71.4126 32.5215C71.3879 32.4794 71.3775 32.4304 71.3831 32.3818L71.7343 28.9193C71.7351 28.9117 71.7351 28.904 71.7343 28.8964V28.6421C71.7343 28.4263 71.692 28.2126 71.6098 28.0133C71.5276 27.8139 71.4072 27.6328 71.2553 27.4803C71.1034 27.3278 70.9232 27.2069 70.7248 27.1245C70.5264 27.0421 70.3139 26.9998 70.0992 27H68.9998C68.5666 27 68.1512 27.173 67.8449 27.481C67.5386 27.7889 67.3665 28.2066 67.3665 28.6421V28.9211L67.7177 32.3748C67.7233 32.4238 67.7127 32.4733 67.6876 32.5157C67.6626 32.5581 67.6244 32.5911 67.579 32.6096C67.2516 32.7399 66.9706 32.9661 66.7727 33.259C66.5748 33.5518 66.469 33.8977 66.469 34.2517V58.7949C66.469 59.3242 66.6781 59.8319 67.0502 60.2063C67.4223 60.5808 67.9271 60.7914 68.4536 60.7919H70.6402C71.167 60.7919 71.6722 60.5815 72.0447 60.207C72.4172 59.8325 72.6265 59.3245 72.6265 58.7949V34.2517C72.6258 33.899 72.52 33.5546 72.3228 33.2628C72.1256 32.9711 71.846 32.7454 71.52 32.6149ZM68.2938 28.4126H70.7947L70.1273 32.2971C70.1186 32.3506 70.0911 32.3991 70.0499 32.4341C70.0087 32.469 69.9564 32.4881 69.9025 32.4878H69.186C69.1319 32.4878 69.0796 32.4687 69.0382 32.4338C68.9968 32.399 68.9689 32.3506 68.9594 32.2971L68.2938 28.4126ZM71.7361 44.4309C71.7361 44.6215 71.6987 44.8103 71.6262 44.9864C71.5536 45.1625 71.4473 45.3225 71.3132 45.4572C71.1792 45.592 71.02 45.6989 70.8449 45.7719C70.6697 45.8448 70.482 45.8823 70.2924 45.8823H68.7908C68.4079 45.8823 68.0407 45.7294 67.77 45.4572C67.4993 45.185 67.3472 44.8159 67.3472 44.4309V39.2363C67.3472 38.8513 67.4993 38.4822 67.77 38.21C68.0407 37.9378 68.4079 37.7849 68.7908 37.7849H70.2924C70.482 37.7849 70.6697 37.8224 70.8449 37.8953C71.02 37.9683 71.1792 38.0752 71.3132 38.21C71.4473 38.3447 71.5536 38.5047 71.6262 38.6808C71.6987 38.8569 71.7361 39.0457 71.7361 39.2363V44.4309Z" fill="#F5F5F5"/>
<path d="M69.5407 43.4156C70.4137 43.4156 71.1214 42.7042 71.1214 41.8265C71.1214 40.9489 70.4137 40.2374 69.5407 40.2374C68.6678 40.2374 67.9601 40.9489 67.9601 41.8265C67.9601 42.7042 68.6678 43.4156 69.5407 43.4156Z" fill="#F5F5F5"/>
<path d="M19.5231 46.9737H24.4181C25.4094 46.9737 26.153 46.7349 26.6487 46.2573C27.1443 45.7797 27.3922 45.1256 27.3922 44.295C27.3922 43.4645 27.1443 42.8104 26.6487 42.3328C26.153 41.8344 25.4094 41.5853 24.4181 41.5853H19.5231V46.9737ZM19.5231 51.1474V59.5259H15V37.4116H24.4181C26.9378 37.4116 28.8173 38.0449 30.0565 39.3115C31.2957 40.5782 31.9153 42.2394 31.9153 44.295C31.9153 46.33 31.2751 47.9808 29.9945 49.2474C28.7347 50.514 26.8758 51.1474 24.4181 51.1474H19.5231Z" fill="#F5F5F5"/>
<path d="M43.0259 52.1752L39.1224 52.8293C37.4701 53.12 36.644 53.7637 36.644 54.7604C36.644 55.9024 37.4598 56.4735 39.0914 56.4735C40.3513 56.4735 41.322 56.1412 42.0036 55.4768C42.6852 54.8123 43.0259 53.9298 43.0259 52.8293V52.1752ZM38.1001 59.8996C36.2825 59.8996 34.8781 59.4428 33.8867 58.5292C32.8953 57.6155 32.3996 56.4008 32.3996 54.885C32.3996 53.4522 32.9057 52.3102 33.9177 51.4588C34.9504 50.6075 36.5407 50.0157 38.6887 49.6834L43.0259 49.0294V48.8736C43.0259 47.2748 42.0552 46.4753 40.1138 46.4753C38.2963 46.4753 37.2946 47.1398 37.1087 48.4687H32.7714C32.916 46.8699 33.5769 45.5305 34.7542 44.4508C35.9314 43.371 37.7076 42.8311 40.0828 42.8311C42.4373 42.8311 44.2135 43.3606 45.4114 44.4196C46.6094 45.4786 47.2083 46.9737 47.2083 48.9048V56.5981C47.2083 57.8232 47.3632 58.7991 47.673 59.5259H43.4287C43.408 59.5259 43.3874 59.4532 43.3667 59.3078C43.3461 59.1625 43.3151 58.9444 43.2738 58.6537C43.2531 58.3423 43.2428 58.0308 43.2428 57.7193C42.2308 59.1729 40.5165 59.8996 38.1001 59.8996Z" fill="#F5F5F5"/>
<path d="M60.3169 43.0803V47.2228C60.0071 47.1606 59.718 47.1294 59.4495 47.1294C58.1483 47.1294 57.1672 47.472 56.5063 48.1573C55.8661 48.8425 55.5459 49.9222 55.5459 51.3965V59.5259H51.1467V43.2049H55.2051V45.3229C56.1346 43.8071 57.6629 43.0492 59.7903 43.0492L60.3169 43.0803Z" fill="#F5F5F5"/>
<path d="M83.1984 59.5259H78.7992V36.1657H83.1984V59.5259Z" fill="#F5F5F5"/>
<path d="M91.2986 43.2049V45.1983C92.1454 43.6202 93.7564 42.8311 96.1315 42.8311C98.0523 42.8311 99.5291 43.4229 100.562 44.6065C101.594 45.7693 102.111 47.3474 102.111 49.3408V59.5259H97.7116V49.8392C97.7116 47.7004 96.7925 46.6311 94.9543 46.6311C93.901 46.6311 93.0851 46.9529 92.5068 47.5966C91.9285 48.2195 91.6394 49.0813 91.6394 50.1818V59.5259H87.2402V43.2049H91.2986Z" fill="#F5F5F5"/>
<path d="M106.975 66.0044L109.701 59.2455L103.288 43.2049H107.966L111.87 54.1063L115.804 43.2049H120.39L111.312 66.0044H106.975Z" fill="#F5F5F5"/>
<path d="M131.49 52.1752L127.586 52.8293C125.934 53.12 125.108 53.7637 125.108 54.7604C125.108 55.9024 125.924 56.4735 127.555 56.4735C128.815 56.4735 129.786 56.1412 130.467 55.4768C131.149 54.8123 131.49 53.9298 131.49 52.8293V52.1752ZM126.564 59.8996C124.746 59.8996 123.342 59.4428 122.35 58.5292C121.359 57.6155 120.863 56.4008 120.863 54.885C120.863 53.4522 121.369 52.3102 122.381 51.4588C123.414 50.6075 125.004 50.0157 127.152 49.6834L131.49 49.0294V48.8736C131.49 47.2748 130.519 46.4753 128.578 46.4753C126.76 46.4753 125.758 47.1398 125.572 48.4687H121.235C121.38 46.8699 122.041 45.5305 123.218 44.4508C124.395 43.371 126.171 42.8311 128.547 42.8311C130.901 42.8311 132.677 43.3606 133.875 44.4196C135.073 45.4786 135.672 46.9737 135.672 48.9048V56.5981C135.672 57.8232 135.827 58.7991 136.137 59.5259H131.892C131.872 59.5259 131.851 59.4532 131.83 59.3078C131.81 59.1625 131.779 58.9444 131.738 58.6537C131.717 58.3423 131.707 58.0308 131.707 57.7193C130.695 59.1729 128.98 59.8996 126.564 59.8996Z" fill="#F5F5F5"/>
<defs>
<linearGradient id="paint0_linear_75_231" x1="9.76265" y1="58.3568" x2="89.5914" y2="54.2233" gradientUnits="userSpaceOnUse">
<stop stop-color="#8542C4"/>
<stop offset="0.9999" stop-color="#F078AD"/>
<stop offset="1" stop-color="#FCD945"/>
</linearGradient>
<linearGradient id="paint1_linear_75_231" x1="-1.06876" y1="49.4972" x2="78.76" y2="45.3636" gradientUnits="userSpaceOnUse">
<stop stop-color="#8542C4"/>
<stop offset="0.9999" stop-color="#F078AD"/>
<stop offset="1" stop-color="#FCD945"/>
</linearGradient>
</defs>
</svg>
