<svg width="30" height="23" viewBox="0 0 30 23" fill="none" xmlns="http://www.w3.org/2000/svg">
<path fill-rule="evenodd" clip-rule="evenodd" d="M30 11.4167C30 10.6194 29.3536 9.97311 28.5564 9.97311H1.61017C0.812931 9.97311 0.166626 10.6194 0.166626 11.4167C0.166626 12.2139 0.812931 12.8602 1.61017 12.8602H28.5564C29.3536 12.8602 30 12.2139 30 11.4167Z" fill="myDark"/>
<path fill-rule="evenodd" clip-rule="evenodd" d="M30 1.793C30 0.995762 29.3536 0.349457 28.5564 0.349457H1.61017C0.812931 0.349457 0.166626 0.995762 0.166626 1.793C0.166626 2.59025 0.812931 3.23655 1.61017 3.23655H28.5564C29.3536 3.23655 30 2.59025 30 1.793Z" fill="myDark"/>
<path fill-rule="evenodd" clip-rule="evenodd" d="M30 21.0403C30 20.2431 29.3536 19.5968 28.5564 19.5968H1.61017C0.812931 19.5968 0.166626 20.2431 0.166626 21.0403C0.166626 21.8375 0.812931 22.4839 1.61017 22.4839H28.5564C29.3536 22.4839 30 21.8375 30 21.0403Z" fill="myDark"/>
</svg>
